<svg xmlns="http://www.w3.org/2000/svg" version="1.1" xmlns:xlink="http://www.w3.org/1999/xlink" xmlns:svgjs="http://svgjs.dev/svgjs" width="2000" height="1247" viewBox="0 0 2000 1247"><g transform="matrix(1,0,0,1,-1.2121212121212466,0.504858299595071)"><svg viewBox="0 0 396 247" data-background-color="#ffffff" preserveAspectRatio="xMidYMid meet" height="1247" width="2000" xmlns="http://www.w3.org/2000/svg" xmlns:xlink="http://www.w3.org/1999/xlink"><g id="tight-bounds" transform="matrix(1,0,0,1,0.2400000000000091,-0.09999999999999432)"><svg viewBox="0 0 395.52 247.2" height="247.2" width="395.52"><g><svg></svg></g><g><svg viewBox="0 0 395.52 247.2" height="247.2" width="395.52"><g transform="matrix(1,0,0,1,39.55199999999999,76.51350062526052)"><svg viewBox="0 0 316.416 94.17299874947895" height="94.17299874947895" width="316.416"><g><svg viewBox="0 0 316.416 94.17299874947895" height="94.17299874947895" width="316.416"><g><svg viewBox="0 0 316.416 94.17299874947895" height="94.17299874947895" width="316.416"><g><svg viewBox="0 0 316.416 94.17299874947895" height="94.17299874947895" width="316.416"><g><svg viewBox="0 0 316.416 94.17299874947895" height="94.17299874947895" width="316.416"><g><svg viewBox="0 0 316.416 94.17299874947895" height="94.17299874947895" width="316.416"><g transform="matrix(1,0,0,1,0,0)"><svg width="316.416" viewBox="4.25 -35.05 119.94 35.699999999999996" height="94.17299874947895" data-palette-color="#bd33a4"><path d="M12.05-34.4Q18.25-34.4 21.5-31.75 24.75-29.1 24.75-23.8L24.75-23.8Q24.75-18.2 21.43-15.48 18.1-12.75 12.2-12.75L12.2-12.75 8.9-12.75 8.9 0 4.25 0 4.25-34.4 12.05-34.4ZM12.05-16.35Q16-16.35 17.95-18 19.9-19.65 19.9-23.75L19.9-23.75Q19.9-27.5 17.98-29.18 16.05-30.85 12.1-30.85L12.1-30.85 8.9-30.85 8.9-16.35 12.05-16.35ZM30.4-34.4L35.05-34.4 35.05 0 30.4 0 30.4-34.4ZM65.34-34.4L65.34 0 59.35 0 47.1-29.55Q47.7-22.95 47.7-16.7L47.7-16.7 47.7 0 43.5 0 43.5-34.4 49.45-34.4 61.75-4.8Q61.55-6.55 61.32-9.6 61.1-12.65 61.1-15.65L61.1-15.65 61.1-34.4 65.34-34.4ZM85.79-35.05Q88.69-35.05 90.87-34.13 93.04-33.2 95.14-31.3L95.14-31.3 92.64-28.7Q90.94-30.1 89.39-30.73 87.84-31.35 85.89-31.35L85.89-31.35Q81.99-31.35 79.49-28.03 76.99-24.7 76.99-17.25L76.99-17.25Q76.99-9.65 79.09-6.38 81.19-3.1 85.39-3.1L85.39-3.1Q88.49-3.1 90.99-4.6L90.99-4.6 90.99-15.35 85.74-15.35 85.24-19 95.49-19 95.49-2.45Q90.74 0.65 85.39 0.65L85.39 0.65Q78.99 0.65 75.54-3.83 72.09-8.3 72.09-17.3L72.09-17.3Q72.09-23.1 73.94-27.1 75.79-31.1 78.92-33.08 82.04-35.05 85.79-35.05L85.79-35.05ZM124.19 0L119.39 0 117.09-8.75 105.54-8.75 103.24 0 98.59 0 108.54-34.4 114.24-34.4 124.19 0ZM111.34-30.7L106.49-12.4 116.14-12.4 111.34-30.7Z" opacity="1" transform="matrix(1,0,0,1,0,0)" fill="#000000" class="undefined-text-0" data-fill-palette-color="primary" id="text-0"></path></svg></g></svg></g></svg></g></svg></g><g></g></svg></g></svg></g></svg></g><g><path d="M0 247.2v-247.2h395.52v247.2zM387.027 238.707v-230.214h-378.534v230.214z" fill="#000000" fill-rule="nonzero" stroke="none" stroke-width="1" stroke-linecap="butt" stroke-linejoin="miter" stroke-miterlimit="10" stroke-dasharray="" stroke-dashoffset="0" font-family="none" font-weight="none" font-size="none" text-anchor="none" style="mix-blend-mode: normal" data-fill-palette-color="tertiary"></path></g></svg></g><defs></defs></svg><rect width="395.52" height="247.2" fill="none" stroke="none" visibility="hidden"></rect></g></svg></g></svg>
