<svg xmlns="http://www.w3.org/2000/svg" version="1.1" xmlns:xlink="http://www.w3.org/1999/xlink" xmlns:svgjs="http://svgjs.dev/svgjs" width="2000" height="544" viewBox="0 0 2000 544"><g transform="matrix(1,0,0,1,0.3398876404492057,-1.0168630629923427)"><svg viewBox="0 0 356 97" data-background-color="#ffffff" preserveAspectRatio="xMidYMid meet" height="544" width="2000" xmlns="http://www.w3.org/2000/svg" xmlns:xlink="http://www.w3.org/1999/xlink"><g id="tight-bounds" transform="matrix(1,0,0,1,-0.06049999999996203,0.1813156564526821)"><svg viewBox="0 0 356.12052 96.63736868709461" height="96.63736868709461" width="356.12052"><g><svg viewBox="0 0 356.12052 96.63736868709461" height="96.63736868709461" width="356.12052"><g><svg viewBox="0 0 356.12052 96.63736868709461" height="96.63736868709461" width="356.12052"><g><path d="M0 96.637v-96.637h356.121v96.637z" fill="#ffffff" stroke="transparent" stroke-width="0" rx="0%" data-fill-palette-color="tertiary"></path><path d="M3.283 93.354v-90.071h349.554v90.071z" fill="#000000" stroke="transparent" stroke-width="0" rx="0%" data-fill-palette-color="quaternary"></path><path d="M9.85 86.787v-76.937h336.421v76.937z" fill="#ffffff" stroke="transparent" stroke-width="0" data-fill-palette-color="tertiary"></path></g><g transform="matrix(1,0,0,1,19.69974,19.69974)" id="textblocktransform"><svg viewBox="0 0 316.72104 57.23788868709461" height="57.23788868709461" width="316.72104" id="textblock"><g><svg viewBox="0 0 316.72104 57.23788868709461" height="57.23788868709461" width="316.72104"><g transform="matrix(1,0,0,1,0,0)"><svg width="316.72104" viewBox="4 -39.95 223.54 40.400000000000006" height="57.23788868709461" data-palette-color="#ffffff"><path d="M26.15-10.5L26.15-37.55Q26.15-39.95 29.1-39.95L29.1-39.95Q32.05-39.95 32.05-37.55L32.05-37.55 32.05-3.05Q32.05-1.3 30.2-0.5L30.2-0.5 30.25-0.5Q29.45-0.15 28.55 0.05 27.65 0.25 26.8 0.25L26.8 0.25Q26.15 0.25 25.45 0.13 24.75 0 24.13-0.28 23.5-0.55 22.98-1.03 22.45-1.5 22.15-2.2L22.15-2.2 11.3-29.25 9.95-29.1 9.95-2.1Q9.95 0.3 6.95 0.3L6.95 0.3Q4 0.3 4-2.1L4-2.1 4-36.55Q4-38.6 5.8-39.3L5.8-39.3Q7.45-39.95 9.3-39.95L9.3-39.95Q10.6-39.95 11.93-39.43 13.25-38.9 13.95-37.45L13.95-37.45 24.75-10.35 26.15-10.5ZM63.65-1.2L52.65-34.8 41.7-1.2 41.7-1.25Q41.4-0.5 40.87-0.03 40.35 0.45 39.6 0.45L39.6 0.45Q39.2 0.45 38.82 0.38 38.45 0.3 38.05 0.2L38.05 0.2 38.1 0.2Q35.25-0.7 36-3L36-3 47.4-37.65Q47.65-38.45 48.27-39 48.9-39.55 49.75-39.65L49.75-39.65Q50.6-39.8 51.4-39.88 52.2-39.95 52.65-39.95L52.65-39.95Q53.1-39.95 53.9-39.88 54.7-39.8 55.55-39.7L55.55-39.7Q56.25-39.6 56.92-38.95 57.6-38.3 57.95-37.65L57.95-37.65Q60.75-29.05 63.62-20.33 66.5-11.6 69.3-3L69.3-3Q70-0.7 67.2 0.2L67.2 0.2Q66.8 0.3 66.47 0.38 66.15 0.45 65.75 0.45L65.75 0.45Q65.05 0.45 64.47-0.03 63.9-0.5 63.65-1.25L63.65-1.25 63.65-1.2ZM56.4-12L56.4-12Q56.4-10.4 55.27-9.28 54.15-8.15 52.55-8.15L52.55-8.15Q50.95-8.15 49.85-9.28 48.75-10.4 48.75-12L48.75-12Q48.75-13.6 49.85-14.73 50.95-15.85 52.55-15.85L52.55-15.85Q54.15-15.85 55.27-14.73 56.4-13.6 56.4-12ZM104.45-39.95L104.45-39.95Q106.05-39.95 107.95-39.2L107.95-39.2Q109.7-38.5 109.7-36.55L109.7-36.55 109.7-2.1Q109.7 0.3 106.75 0.3L106.75 0.3Q103.8 0.3 103.8-2.1L103.8-2.1 103.8-27.8 102.35-27.95 100.35-21.45 94.35-1.45Q93.8 0.3 91.65 0.25L91.65 0.25Q90.7 0.2 90-0.25 89.3-0.7 89.05-1.55L89.05-1.55 85.45-13.2Q84.35-16.65 83.25-20.23 82.15-23.8 80.85-28.15L80.85-28.15 79.4-27.95 79.4-2.1Q79.4 0.3 76.45 0.3L76.45 0.3Q73.5 0.3 73.5-2.1L73.5-2.1 73.5-36.55Q73.5-38.45 75.25-39.2L75.25-39.2Q77.1-39.95 78.8-39.9L78.8-39.9Q79.55-39.9 80.35-39.7 81.15-39.5 81.85-39.13 82.55-38.75 83.1-38.18 83.65-37.6 83.95-36.85L83.95-36.85 91.8-10.1Q92.65-13.05 93.6-16.5 94.55-19.95 95.55-23.5 96.55-27.05 97.52-30.53 98.5-34 99.35-37L99.35-37Q99.65-37.7 100.2-38.25 100.75-38.8 101.45-39.18 102.15-39.55 102.92-39.75 103.7-39.95 104.45-39.95ZM122.89-37.55L122.89-2.1Q122.89 0.3 119.89 0.3L119.89 0.3Q116.94 0.3 116.94-2.1L116.94-2.1 116.94-37.55Q116.94-39.95 119.89-39.95L119.89-39.95Q122.89-39.95 122.89-37.55L122.89-37.55ZM153.04-10.5L153.04-37.55Q153.04-39.95 155.99-39.95L155.99-39.95Q158.94-39.95 158.94-37.55L158.94-37.55 158.94-3.05Q158.94-1.3 157.09-0.5L157.09-0.5 157.14-0.5Q156.34-0.15 155.44 0.05 154.54 0.25 153.69 0.25L153.69 0.25Q153.04 0.25 152.34 0.13 151.64 0 151.02-0.28 150.39-0.55 149.87-1.03 149.34-1.5 149.04-2.2L149.04-2.2 138.19-29.25 136.84-29.1 136.84-2.1Q136.84 0.3 133.84 0.3L133.84 0.3Q130.89 0.3 130.89-2.1L130.89-2.1 130.89-36.55Q130.89-38.6 132.69-39.3L132.69-39.3Q134.34-39.95 136.19-39.95L136.19-39.95Q137.49-39.95 138.82-39.43 140.14-38.9 140.84-37.45L140.84-37.45 151.64-10.35 153.04-10.5ZM186.94-8.4L186.94-18.05Q186.94-20.5 189.94-20.5L189.94-20.5Q192.89-20.5 192.89-18.15L192.89-18.15 192.89-8Q192.89-3.95 190.19-1.95L190.19-1.95Q188.89-1 187.51-0.48 186.14 0.05 184.84 0.05L184.84 0.05 174.44 0.05Q173.14 0.05 171.76-0.48 170.39-1 169.09-1.95L169.09-1.95Q167.79-2.95 167.09-4.42 166.39-5.9 166.39-8L166.39-8 166.39-31.75Q166.39-33.8 167.11-35.3 167.84-36.8 169.09-37.75L169.09-37.75 169.04-37.75Q170.34-38.6 171.74-39.15 173.14-39.7 174.44-39.7L174.44-39.7 184.34-39.7Q185.64-39.7 187.04-39.15 188.44-38.6 189.74-37.75L189.74-37.75 189.69-37.75Q192.34-35.8 192.34-31.75L192.34-31.75 192.34-28.3Q192.34-25.9 189.39-25.9L189.39-25.9Q186.44-25.9 186.44-28.3L186.44-28.3 186.44-31.3Q186.44-32.55 185.69-33.6 184.94-34.65 183.09-34.65L183.09-34.65 175.74-34.65Q173.84-34.65 173.09-33.6 172.34-32.55 172.34-31.3L172.34-31.3 172.34-8.4Q172.34-7.75 172.51-7.15 172.69-6.55 173.09-6.08 173.49-5.6 174.14-5.3 174.79-5 175.74-5L175.74-5 183.59-5Q185.44-5 186.19-6.05 186.94-7.1 186.94-8.4L186.94-8.4ZM184.59-18.6L184.59-18.6Q184.59-17.75 184.26-16.98 183.94-16.2 183.36-15.65 182.79-15.1 182.04-14.78 181.29-14.45 180.39-14.45L180.39-14.45Q178.69-14.45 177.49-15.65 176.29-16.85 176.29-18.6L176.29-18.6Q176.29-20.3 177.49-21.5 178.69-22.7 180.39-22.7L180.39-22.7Q181.29-22.7 182.04-22.38 182.79-22.05 183.36-21.5 183.94-20.95 184.26-20.2 184.59-19.45 184.59-18.6ZM208.59-39.7L219.49-39.7Q220.79-39.7 222.19-39.15 223.59-38.6 224.89-37.75L224.89-37.75 224.84-37.75Q226.14-36.8 226.84-35.27 227.54-33.75 227.54-31.75L227.54-31.75 227.54-8Q227.54-3.95 224.84-1.95L224.84-1.95Q223.54-1 222.16-0.48 220.79 0.05 219.49 0.05L219.49 0.05 208.59 0.05Q207.29 0.05 205.91-0.48 204.54-1 203.24-1.95L203.24-1.95Q201.94-2.95 201.24-4.42 200.54-5.9 200.54-8L200.54-8 200.54-31.75Q200.54-33.75 201.24-35.27 201.94-36.8 203.24-37.75L203.24-37.75 203.19-37.75Q204.49-38.6 205.89-39.15 207.29-39.7 208.59-39.7L208.59-39.7ZM209.84-5L218.24-5Q220.09-5 220.84-6.05 221.59-7.1 221.59-8.4L221.59-8.4 221.59-31.3Q221.59-32.55 220.84-33.6 220.09-34.65 218.24-34.65L218.24-34.65 209.84-34.65Q207.99-34.65 207.24-33.6 206.49-32.55 206.49-31.3L206.49-31.3 206.49-8.4Q206.49-7.1 207.24-6.05 207.99-5 209.84-5L209.84-5Z" opacity="1" transform="matrix(1,0,0,1,0,0)" fill="#000000" class="wordmark-text-0" data-fill-palette-color="quaternary" id="text-0"></path></svg></g></svg></g></svg></g></svg></g><g></g></svg></g><defs></defs></svg><rect width="356.12052" height="96.63736868709461" fill="none" stroke="none" visibility="hidden"></rect></g></svg></g></svg>