<svg width="1479" height="584" viewBox="0 0 1479 584" fill="none" xmlns="http://www.w3.org/2000/svg">
<g clip-path="url(#clip0_4869_32876)">
<path d="M665.541 388.554L665.539 388.564L665.537 388.573C660.351 409.736 657.507 423.289 657.147 431.564C656.969 435.671 657.381 438.785 658.686 440.9C660.098 443.191 662.355 444.023 664.994 444.023C667.319 444.023 669.375 442.886 671.151 441.145C672.92 439.409 674.52 436.975 675.981 434.104C678.903 428.361 681.434 420.542 683.643 412.123C685.111 406.971 686.614 401.401 687.476 396.085C704.281 396.856 721.581 397.227 744.197 397.227C759.853 397.227 774.164 396.887 788.869 396.539C796.158 396.366 803.543 396.191 811.237 396.054C809.697 405.735 807.8 414.688 805.546 422.941L805.542 422.956L805.538 422.972C794.379 467.627 779.211 494.376 754.786 510.07C730.283 525.815 696.178 530.633 646.603 530.633C616.461 530.633 592.572 528.185 574.125 522.786C555.698 517.394 542.792 509.085 534.467 497.41C526.134 485.725 522.258 470.48 522.263 450.962C522.269 431.435 526.16 407.747 533.246 379.294C545.811 329.039 562.984 299.166 588.537 281.769C614.137 264.341 648.434 259.227 695.79 259.227C725.064 259.227 748.872 260.427 767.812 263.446C786.768 266.468 800.705 271.291 810.349 278.434C819.927 285.528 825.373 294.984 827.226 307.562C829.089 320.212 827.318 336.037 822.336 355.766L822.329 355.795L822.322 355.825C821.115 361.579 818.972 367.553 816.571 374.247C815.974 375.912 815.361 377.622 814.742 379.383C796.582 378.617 775.664 378.227 748.993 378.227C725.782 378.227 703.61 378.594 690.782 379.319C691.438 375.859 692.493 372.609 693.444 369.676C693.795 368.594 694.132 367.555 694.43 366.565L694.442 366.526L694.451 366.486C697.447 354.106 698.805 345.905 698.542 340.758C698.411 338.183 697.866 336.118 696.679 334.688C695.428 333.18 693.687 332.633 691.79 332.633C689.623 332.633 687.544 333.133 685.512 334.78C683.549 336.371 681.732 338.953 679.845 342.882C676.072 350.733 671.74 364.573 665.541 388.554ZM1171.45 264.43C1166.77 274.694 1162.75 285.604 1158.73 296.486C1157.94 298.617 1157.15 300.746 1156.36 302.87C1151.24 316.63 1145.92 330.157 1139.09 342.295C1132.25 354.422 1123.93 365.108 1112.83 373.207C1101.74 381.298 1087.8 386.863 1069.65 388.64L1068.6 388.742L1068.34 389.762L1067.93 391.356L1067.48 393.129L1069.31 393.225C1086.31 394.116 1096.97 398.549 1103.54 405.504C1110.12 412.469 1112.85 422.228 1113.4 434.346C1113.94 446.471 1112.28 460.703 1110.32 476.423C1110.19 477.445 1110.06 478.474 1109.93 479.508C1108.12 493.897 1106.18 509.413 1105.55 525.43H983.794C977.173 525.43 973.643 524.59 971.717 522.785C969.847 521.032 969.092 517.975 969.293 512.203C969.872 502.241 970.714 492.423 971.516 483.069C972.101 476.235 972.666 469.648 973.092 463.433C974.088 448.885 974.322 436.413 972.032 428.512L971.718 427.43H970.591H967.388H966.229L965.937 428.551C956.465 464.879 948.937 495.002 942.575 525.43H803.749C813.409 489.308 824.321 445.036 835.563 399.423C839.565 383.183 843.61 366.772 847.655 350.499C859.541 303.342 870.634 259.328 880.185 218.836H1019.01C1010.64 248.415 1003.32 278.139 994.433 314.208C990.403 330.564 986.052 348.224 981.136 367.767L980.667 369.633H982.591H984.201H985.106L985.528 368.832C989.059 362.133 992.698 355.401 996.143 349.028C1000.07 341.767 1003.74 334.973 1006.71 329.225C1020.06 304.517 1030.71 278.658 1036.4 264.43H1171.45ZM1477.01 264.43C1469.63 291.01 1462.9 317.536 1452.74 358.159C1450.01 368.896 1445.85 386.66 1441.57 404.949L1441.23 406.387C1436.83 425.195 1432.34 444.382 1429.15 456.967L1429.14 456.975C1417.13 505.426 1406.11 536.519 1382.16 555.658C1358.2 574.802 1320.98 582.227 1255.79 582.227C1201.41 582.227 1167.22 575.408 1148.23 562.583C1138.8 556.213 1133.13 548.373 1130.56 539.114C1127.98 529.816 1128.49 518.95 1131.65 506.502L1131.65 506.497C1133.56 498.863 1135.84 491.224 1138.83 482.513C1154.31 483.671 1174.08 484.43 1202.6 484.43C1231.88 484.43 1248.55 483.71 1262.54 482.602C1261.97 484.501 1261.44 486.27 1261.14 487.8C1259.54 493.975 1258.84 498.985 1259.68 502.524C1260.12 504.359 1260.99 505.895 1262.44 506.948C1263.87 507.988 1265.69 508.43 1267.79 508.43C1270.28 508.43 1272.52 507.968 1274.57 506.81C1276.6 505.656 1278.32 503.877 1279.86 501.431C1282.9 496.607 1285.45 488.889 1288.44 477.317C1290.84 468.544 1293.22 460.566 1295.62 452.976L1296.04 451.646L1294.75 451.13L1292.75 450.333L1291.86 449.98L1291.17 450.633C1278.37 462.652 1260.45 467.836 1230.99 467.836C1200.54 467.836 1179.73 461.255 1167.85 449.276C1156.05 437.377 1152.72 419.789 1158.06 396.874C1160.73 385.994 1163.43 375.768 1166.12 365.528C1169.44 352.945 1172.76 340.341 1176.06 326.481C1176.87 323.197 1177.65 320.006 1178.42 316.896C1183.23 297.366 1187.26 280.998 1190.99 264.43H1321.81C1313.46 294.381 1302.13 337.394 1292.33 376.963C1290.73 383.007 1290.51 387.429 1291.76 390.417C1292.42 391.972 1293.46 393.116 1294.83 393.847C1296.18 394.562 1297.74 394.836 1299.4 394.836C1303.32 394.836 1306.64 393.066 1309.33 389.606C1311.96 386.213 1314.03 381.178 1315.65 374.502C1318.26 364.595 1323.31 344.26 1328.52 323.284L1329.65 318.741C1335.06 296.955 1340.47 275.242 1343.34 264.43H1477.01ZM548.245 228.43C537.205 270.255 526.117 313.503 510.737 376.163C498.872 423.333 490.09 459.726 482.101 492.832C479.412 503.975 476.813 514.746 474.217 525.43H325.356C336.762 483.217 347.488 439.945 362.852 377.291C364.483 370.808 366.064 364.528 367.599 358.432C380.98 305.297 390.833 266.169 399.391 228.43H548.245Z" fill="black" stroke="white" stroke-width="3"/>
<mask id="path-2-inside-1_4869_32876" fill="white">
<path fill-rule="evenodd" clip-rule="evenodd" d="M486.103 146.834C517.285 147.726 540.953 152.088 540.953 157.333C540.953 162.579 517.285 166.94 486.103 167.833C485.111 195.964 480.198 217.333 474.286 217.333C468.375 217.333 463.462 195.964 462.47 167.833C431.288 166.94 407.62 162.579 407.62 157.333C407.62 152.088 431.288 147.726 462.47 146.834C463.463 118.703 468.375 97.3335 474.286 97.3335C480.198 97.3335 485.11 118.703 486.103 146.834Z"/>
</mask>
<path fill-rule="evenodd" clip-rule="evenodd" d="M486.103 146.834C517.285 147.726 540.953 152.088 540.953 157.333C540.953 162.579 517.285 166.94 486.103 167.833C485.111 195.964 480.198 217.333 474.286 217.333C468.375 217.333 463.462 195.964 462.47 167.833C431.288 166.94 407.62 162.579 407.62 157.333C407.62 152.088 431.288 147.726 462.47 146.834C463.463 118.703 468.375 97.3335 474.286 97.3335C480.198 97.3335 485.11 118.703 486.103 146.834Z" fill="black"/>
<path d="M486.103 146.834L483.105 146.939L483.205 149.752L486.018 149.832L486.103 146.834ZM486.103 167.833L486.018 164.834L483.205 164.915L483.105 167.727L486.103 167.833ZM462.47 167.833L465.468 167.727L465.368 164.915L462.555 164.834L462.47 167.833ZM462.47 146.834L462.555 149.832L465.368 149.752L465.468 146.939L462.47 146.834ZM486.018 149.832C501.515 150.276 515.058 151.58 524.664 153.399C529.491 154.312 533.176 155.329 535.585 156.362C536.802 156.884 537.524 157.34 537.894 157.665C538.279 158.004 537.953 157.894 537.953 157.333H543.953C543.953 155.461 542.888 154.068 541.857 153.16C540.811 152.24 539.44 151.487 537.95 150.848C534.948 149.56 530.766 148.447 525.779 147.503C515.756 145.606 501.874 144.284 486.189 143.835L486.018 149.832ZM537.953 157.333C537.953 156.773 538.279 156.663 537.894 157.001C537.524 157.327 536.802 157.782 535.585 158.304C533.176 159.337 529.491 160.354 524.664 161.268C515.058 163.086 501.515 164.39 486.018 164.834L486.189 170.832C501.874 170.383 515.756 169.06 525.779 167.163C530.766 166.219 534.948 165.106 537.95 163.818C539.44 163.18 540.811 162.427 541.857 161.506C542.888 160.599 543.953 159.205 543.953 157.333H537.953ZM483.105 167.727C482.613 181.674 481.151 193.839 479.12 202.443C478.098 206.769 476.971 210.03 475.842 212.139C475.276 213.197 474.787 213.818 474.431 214.142C474.092 214.451 474.057 214.333 474.286 214.333V220.333C475.994 220.333 477.406 219.548 478.471 218.578C479.519 217.624 480.391 216.356 481.132 214.97C482.618 212.194 483.889 208.354 484.959 203.822C487.111 194.708 488.601 182.123 489.102 167.939L483.105 167.727ZM474.286 214.333C474.516 214.333 474.481 214.451 474.142 214.142C473.786 213.818 473.297 213.197 472.731 212.139C471.602 210.03 470.475 206.769 469.453 202.443C467.422 193.839 465.96 181.674 465.468 167.727L459.471 167.939C459.972 182.123 461.462 194.708 463.614 203.822C464.684 208.354 465.955 212.194 467.441 214.97C468.182 216.356 469.054 217.624 470.102 218.578C471.167 219.548 472.579 220.333 474.286 220.333V214.333ZM462.555 164.834C447.058 164.39 433.516 163.086 423.909 161.268C419.082 160.354 415.397 159.337 412.988 158.304C411.771 157.782 411.049 157.327 410.679 157.001C410.294 156.663 410.62 156.773 410.62 157.333H404.62C404.62 159.205 405.685 160.599 406.716 161.506C407.762 162.427 409.134 163.18 410.623 163.818C413.625 165.106 417.807 166.219 422.794 167.163C432.817 169.06 446.699 170.383 462.384 170.832L462.555 164.834ZM410.62 157.333C410.62 157.894 410.294 158.004 410.679 157.665C411.049 157.34 411.771 156.884 412.988 156.362C415.397 155.329 419.082 154.312 423.909 153.399C433.516 151.58 447.058 150.276 462.555 149.832L462.384 143.835C446.699 144.284 432.817 145.606 422.794 147.503C417.807 148.447 413.625 149.56 410.623 150.848C409.134 151.487 407.762 152.24 406.716 153.16C405.685 154.068 404.62 155.461 404.62 157.333H410.62ZM465.468 146.939C465.96 132.992 467.422 120.827 469.453 112.224C470.475 107.897 471.602 104.637 472.731 102.528C473.297 101.47 473.786 100.849 474.142 100.525C474.481 100.216 474.516 100.333 474.286 100.333V94.3335C472.579 94.3335 471.167 95.1186 470.102 96.0885C469.054 97.0431 468.182 98.3107 467.441 99.6964C465.955 102.473 464.684 106.313 463.614 110.845C461.462 119.959 459.972 132.544 459.471 146.728L465.468 146.939ZM474.286 100.333C474.057 100.333 474.092 100.216 474.431 100.525C474.787 100.849 475.276 101.47 475.842 102.528C476.971 104.637 478.098 107.897 479.12 112.224C481.151 120.827 482.613 132.992 483.105 146.939L489.102 146.728C488.601 132.544 487.111 119.959 484.959 110.845C483.889 106.313 482.618 102.473 481.132 99.6964C480.391 98.3107 479.519 97.0431 478.471 96.0885C477.406 95.1186 475.994 94.3335 474.286 94.3335V100.333Z" fill="white" mask="url(#path-2-inside-1_4869_32876)"/>
<mask id="path-4-inside-2_4869_32876" fill="white">
<path fill-rule="evenodd" clip-rule="evenodd" d="M604.463 40.1501C629.756 40.8739 648.953 44.4114 648.953 48.6667C648.953 52.922 629.756 56.4594 604.463 57.1832C603.658 80.0001 599.673 97.3333 594.878 97.3333C590.085 97.3333 586.099 80.0001 585.294 57.1832C560.002 56.4593 540.805 52.9219 540.805 48.6667C540.805 44.4114 560.002 40.874 585.294 40.1501C586.099 17.3333 590.085 0 594.878 0C599.673 0 603.658 17.3333 604.463 40.1501Z"/>
</mask>
<path fill-rule="evenodd" clip-rule="evenodd" d="M604.463 40.1501C629.756 40.8739 648.953 44.4114 648.953 48.6667C648.953 52.922 629.756 56.4594 604.463 57.1832C603.658 80.0001 599.673 97.3333 594.878 97.3333C590.085 97.3333 586.099 80.0001 585.294 57.1832C560.002 56.4593 540.805 52.9219 540.805 48.6667C540.805 44.4114 560.002 40.874 585.294 40.1501C586.099 17.3333 590.085 0 594.878 0C599.673 0 603.658 17.3333 604.463 40.1501Z" fill="black"/>
<path d="M604.463 40.1501L601.465 40.256L601.564 43.0684L604.377 43.1489L604.463 40.1501ZM604.463 57.1832L604.377 54.1844L601.564 54.2649L601.465 57.0773L604.463 57.1832ZM585.294 57.1832L588.292 57.0773L588.193 54.2649L585.38 54.1844L585.294 57.1832ZM585.294 40.1501L585.38 43.1489L588.193 43.0684L588.292 40.256L585.294 40.1501ZM604.377 43.1489C616.93 43.5081 627.883 44.5645 635.635 46.0318C639.536 46.77 642.477 47.5854 644.376 48.3997C645.337 48.8119 645.861 49.1532 646.097 49.3608C646.348 49.582 645.953 49.3508 645.953 48.6667H651.953C651.953 46.9187 650.958 45.6461 650.061 44.8565C649.148 44.0534 647.975 43.4145 646.741 42.8854C644.25 41.817 640.811 40.9049 636.751 40.1364C628.582 38.5902 617.289 37.5159 604.549 37.1514L604.377 43.1489ZM645.953 48.6667C645.953 47.9825 646.348 47.7514 646.097 47.9725C645.861 48.1801 645.337 48.5214 644.376 48.9337C642.477 49.7479 639.536 50.5633 635.635 51.3016C627.883 52.7688 616.93 53.8252 604.377 54.1844L604.549 60.1819C617.289 59.8174 628.582 58.7431 636.751 57.1969C640.811 56.4284 644.25 55.5164 646.741 54.4479C647.975 53.9188 649.148 53.2799 650.061 52.4768C650.958 51.6872 651.953 50.4146 651.953 48.6667H645.953ZM601.465 57.0773C601.067 68.3674 599.883 78.1949 598.247 85.1254C597.423 88.615 596.522 91.2053 595.641 92.853C595.198 93.6794 594.837 94.1227 594.614 94.3259C594.408 94.5138 594.509 94.3333 594.878 94.3333V100.333C596.447 100.333 597.721 99.6113 598.654 98.7621C599.57 97.9283 600.313 96.8391 600.931 95.684C602.17 93.3687 603.214 90.1996 604.087 86.5038C605.843 79.0634 607.055 68.8158 607.461 57.289L601.465 57.0773ZM594.878 94.3333C595.248 94.3333 595.35 94.514 595.143 94.326C594.92 94.1228 594.559 93.6795 594.117 92.8531C593.235 91.2053 592.334 88.615 591.51 85.1253C589.874 78.1948 588.69 68.3673 588.292 57.0773L582.296 57.289C582.703 68.8159 583.914 79.0635 585.671 86.5039C586.543 90.1996 587.588 93.3687 588.827 95.6839C589.445 96.839 590.188 97.9281 591.103 98.7619C592.036 99.6111 593.31 100.333 594.878 100.333V94.3333ZM585.38 54.1844C572.827 53.8251 561.875 52.7688 554.123 51.3015C550.222 50.5632 547.281 49.7479 545.382 48.9336C544.421 48.5214 543.897 48.1801 543.661 47.9725C543.41 47.7514 543.805 47.9825 543.805 48.6667H537.805C537.805 50.4146 538.8 51.6872 539.698 52.4768C540.61 53.2799 541.784 53.9188 543.017 54.4479C545.509 55.5163 548.947 56.4284 553.007 57.1969C561.176 58.7431 572.468 59.8173 585.208 60.1819L585.38 54.1844ZM543.805 48.6667C543.805 49.3508 543.41 49.582 543.661 49.3608C543.897 49.1532 544.421 48.8119 545.382 48.3997C547.281 47.5854 550.222 46.7701 554.123 46.0318C561.875 44.5645 572.827 43.5082 585.38 43.1489L585.208 37.1514C572.468 37.516 561.176 38.5902 553.007 40.1364C548.947 40.9049 545.509 41.817 543.017 42.8854C541.784 43.4145 540.61 44.0534 539.698 44.8565C538.8 45.6462 537.805 46.9187 537.805 48.6667H543.805ZM588.292 40.256C588.69 28.966 589.874 19.1385 591.51 12.208C592.334 8.71837 593.235 6.12801 594.117 4.48027C594.559 3.6538 594.92 3.21052 595.143 3.00732C595.35 2.81939 595.248 3 594.878 3V-3C593.31 -3 592.036 -2.27772 591.103 -1.42861C590.188 -0.594768 589.445 0.494369 588.827 1.6494C587.588 3.96467 586.543 7.13369 585.671 10.8295C583.914 18.2698 582.703 28.5174 582.296 40.0443L588.292 40.256ZM594.878 3C594.509 3 594.408 2.81958 594.614 3.00748C594.837 3.21066 595.198 3.65391 595.641 4.48035C596.522 6.12803 597.423 8.71833 598.247 12.208C599.883 19.1385 601.067 28.9659 601.465 40.256L607.461 40.0443C607.055 28.5175 605.843 18.2699 604.087 10.8295C603.214 7.13373 602.17 3.96465 600.931 1.64932C600.313 0.494251 599.57 -0.594915 598.654 -1.42877C597.721 -2.27792 596.447 -3 594.878 -3V3Z" fill="white" mask="url(#path-4-inside-2_4869_32876)"/>
<mask id="path-6-inside-3_4869_32876" fill="white">
<path fill-rule="evenodd" clip-rule="evenodd" d="M696.119 151.225C713.269 151.716 726.286 154.115 726.286 157C726.286 159.885 713.269 162.284 696.119 162.775C695.573 178.247 692.871 190 689.62 190C686.369 190 683.667 178.247 683.12 162.775C665.97 162.284 652.953 159.885 652.953 157C652.953 154.115 665.97 151.716 683.12 151.225C683.667 135.753 686.369 124 689.62 124C692.871 124 695.573 135.753 696.119 151.225Z"/>
</mask>
<path fill-rule="evenodd" clip-rule="evenodd" d="M696.119 151.225C713.269 151.716 726.286 154.115 726.286 157C726.286 159.885 713.269 162.284 696.119 162.775C695.573 178.247 692.871 190 689.62 190C686.369 190 683.667 178.247 683.12 162.775C665.97 162.284 652.953 159.885 652.953 157C652.953 154.115 665.97 151.716 683.12 151.225C683.667 135.753 686.369 124 689.62 124C692.871 124 695.573 135.753 696.119 151.225Z" fill="black"/>
<path d="M696.119 151.225L693.121 151.331L693.22 154.143L696.033 154.224L696.119 151.225ZM696.119 162.775L696.033 159.776L693.22 159.856L693.121 162.669L696.119 162.775ZM683.12 162.775L686.119 162.669L686.019 159.856L683.206 159.776L683.12 162.775ZM683.12 151.225L683.206 154.224L686.019 154.143L686.119 151.331L683.12 151.225ZM696.033 154.224C704.515 154.467 711.887 155.18 717.076 156.162C719.696 156.658 721.61 157.195 722.802 157.707C723.41 157.967 723.661 158.151 723.712 158.196C723.778 158.254 723.286 157.855 723.286 157H729.286C729.286 155.423 728.388 154.318 727.675 153.691C726.948 153.051 726.047 152.57 725.167 152.192C723.382 151.427 720.971 150.793 718.192 150.267C712.585 149.206 704.874 148.475 696.205 148.226L696.033 154.224ZM723.286 157C723.286 156.144 723.778 155.746 723.712 155.804C723.661 155.849 723.41 156.033 722.802 156.293C721.61 156.804 719.696 157.342 717.076 157.838C711.887 158.82 704.515 159.533 696.033 159.776L696.205 165.774C704.874 165.525 712.585 164.794 718.192 163.733C720.971 163.207 723.382 162.573 725.167 161.808C726.047 161.43 726.948 160.949 727.675 160.309C728.388 159.682 729.286 158.577 729.286 157H723.286ZM693.121 162.669C692.852 170.287 692.054 176.883 690.964 181.5C690.413 183.833 689.826 185.496 689.285 186.506C689.014 187.014 688.83 187.21 688.79 187.247C688.767 187.268 689.057 187 689.62 187V193C690.995 193 692.081 192.365 692.83 191.683C693.562 191.016 694.128 190.173 694.575 189.337C695.473 187.66 696.204 185.418 696.804 182.879C698.014 177.751 698.84 170.735 699.117 162.881L693.121 162.669ZM689.62 187C690.182 187 690.472 187.268 690.449 187.247C690.41 187.21 690.226 187.014 689.954 186.506C689.414 185.496 688.826 183.833 688.275 181.5C687.185 176.883 686.387 170.287 686.119 162.669L680.122 162.881C680.4 170.735 681.226 177.751 682.436 182.879C683.035 185.418 683.767 187.66 684.664 189.337C685.112 190.173 685.677 191.016 686.41 191.683C687.159 192.365 688.245 193 689.62 193V187ZM683.206 159.776C674.725 159.533 667.353 158.82 662.163 157.838C659.544 157.342 657.629 156.804 656.437 156.293C655.829 156.033 655.579 155.849 655.528 155.804C655.461 155.746 655.953 156.144 655.953 157H649.953C649.953 158.577 650.852 159.682 651.564 160.309C652.292 160.949 653.192 161.43 654.073 161.808C655.857 162.573 658.269 163.207 661.048 163.733C666.654 164.794 674.366 165.525 683.035 165.774L683.206 159.776ZM655.953 157C655.953 157.855 655.461 158.254 655.528 158.196C655.579 158.151 655.829 157.967 656.437 157.707C657.629 157.195 659.544 156.658 662.163 156.162C667.353 155.18 674.725 154.467 683.206 154.224L683.035 148.226C674.366 148.475 666.654 149.206 661.048 150.267C658.269 150.793 655.857 151.427 654.073 152.192C653.192 152.57 652.292 153.051 651.564 153.691C650.852 154.318 649.953 155.423 649.953 157H655.953ZM686.119 151.331C686.388 143.713 687.185 137.117 688.275 132.5C688.826 130.167 689.414 128.504 689.954 127.494C690.226 126.986 690.41 126.79 690.449 126.753C690.472 126.732 690.182 127 689.62 127V121C688.245 121 687.159 121.635 686.41 122.317C685.677 122.984 685.112 123.827 684.664 124.663C683.767 126.34 683.035 128.582 682.436 131.121C681.226 136.249 680.4 143.265 680.122 151.119L686.119 151.331ZM689.62 127C689.057 127 688.767 126.732 688.79 126.753C688.83 126.79 689.014 126.986 689.285 127.494C689.826 128.504 690.413 130.167 690.964 132.5C692.054 137.117 692.852 143.713 693.121 151.331L699.117 151.119C698.84 143.265 698.014 136.249 696.804 131.121C696.204 128.582 695.473 126.34 694.575 124.663C694.128 123.827 693.562 122.984 692.83 122.317C692.081 121.635 690.995 121 689.62 121V127Z" fill="white" mask="url(#path-6-inside-3_4869_32876)"/>
<path d="M113.541 524.774H1.97126C2.04816 524.496 2.13319 524.188 2.22614 523.852C2.73527 522.008 3.48213 519.301 4.43319 515.844C6.33531 508.931 9.05425 499.021 12.3217 487.034C18.8564 463.059 27.5854 430.774 36.3618 397.532C45.1378 364.292 53.9631 330.088 60.6896 302.279C64.0526 288.376 66.8932 276.062 68.9412 266.261C70.9806 256.502 72.258 249.128 72.4534 245.169C73.2173 229.701 71.0219 217.552 68.6221 209.248C67.4223 205.097 66.1718 201.908 65.2149 199.746C65.0374 199.345 64.8699 198.979 64.7148 198.649L196.27 197.914L230.675 315.34L233.578 315.245L259.696 198.184L372.914 197.405L289.073 524.397H194.361L150.52 376.013L148.898 370.524L147.619 376.103L113.541 524.774Z" fill="black" stroke="white" stroke-width="3"/>
</g>
<defs>
<clipPath id="clip0_4869_32876">
<rect width="1478.99" height="583.727" fill="white"/>
</clipPath>
</defs>
</svg>
